<svg xml:space="preserve" viewBox="0 0 512 512" height="512" width="512" xmlns:xlink="http://www.w3.org/1999/xlink" xmlns="http://www.w3.org/2000/svg"><defs><linearGradient id="a"><stop style="stop-color:#31748f;stop-opacity:1" offset="0"/><stop style="stop-color:#9ccfd8;stop-opacity:1" offset="1"/></linearGradient><linearGradient xlink:href="#a" id="b" x1="254.819" y1="411.542" x2="259.34" y2="-1.41" gradientUnits="userSpaceOnUse"/></defs><path style="fill:url(#b);fill-opacity:1;stroke-width:.996356" d="M0 0v512h512V0Z"/><g style="font-weight:400;font-family:&quot;OTADESIGN Rounded&quot;;letter-spacing:0;word-spacing:0;fill:#fff"><g transform="translate(-38.55 37.929) scale(.5619)" style="fill:#fff"/><path style="fill:#fff" d="M-41.832 77.19c-3.868 0-7.177 1.358-9.93 4.074-2.716 2.752-4.074 6.063-4.074 9.931 0 3.869 1.358 7.04 4.074 9.793 2.753 2.716 6.064 4.073 9.932 4.073 3.831 0 7.122-1.357 9.875-4.073.855-.855 1.283-1.896 1.283-3.123 0-1.228-.428-2.271-1.283-3.127-.856-.855-1.897-1.281-3.123-1.281-1.229 0-2.27.426-3.125 1.281-1.004 1.042-2.213 1.563-3.627 1.563-3.035-.31-5.208-2.263-5.246-5.106.038-2.842 2.21-4.935 5.244-5.246 1.414 0 2.623.52 3.627 1.563.855.855 1.898 1.283 3.127 1.283 1.226 0 2.267-.428 3.123-1.283.855-.856 1.283-1.897 1.283-3.125 0-1.227-.428-2.268-1.283-3.123-2.753-2.716-6.046-4.075-9.877-4.075zm20.902 6.91c-2.88 0-5.353 1.02-7.422 3.06-.642.643-.964 1.426-.964 2.348 0 .923.322 1.706.964 2.35.644.642 1.427.962 2.348.962.924 0 1.707-.32 2.35-.963.754-.783 1.662-1.173 2.724-1.173 1.09 0 2.026.376 2.809 1.13a3.909 3.909 0 0 1 1.135 2.811c0 1.062-.393 1.97-1.176 2.725-.392.419-.868.7-1.426.84-.141.027-.252.012-.336-.044-.056-.084-.028-.168.084-.251l.84-.881c.643-.643.965-1.411.965-2.305 0-.922-.28-1.663-.838-2.223-.559-.559-1.343-.84-2.35-.84-.698 0-1.397.35-2.095 1.05l-4.866 4.822c-.643.643-.964 1.426-.964 2.347 0 .923.321 1.705.964 2.348 1.957 1.93 4.375 2.894 7.254 2.894 2.908 0 5.396-1.034 7.465-3.103 2.041-2.041 3.06-4.5 3.06-7.379 0-2.907-1.019-5.396-3.06-7.465-2.069-2.04-4.557-3.06-7.465-3.06z" transform="translate(511.15 -446.2) scale(7.70387)" clip-rule="evenodd" fill-rule="evenodd"/></g></svg>
