<?xml version="1.0" encoding="UTF-8" standalone="no"?>
<svg
   xmlns:dc="http://purl.org/dc/elements/1.1/"
   xmlns:cc="http://creativecommons.org/ns#"
   xmlns:rdf="http://www.w3.org/1999/02/22-rdf-syntax-ns#"
   xmlns:svg="http://www.w3.org/2000/svg"
   xmlns="http://www.w3.org/2000/svg"
   id="svg10"
   version="1.1"
   viewBox="0 0 575 60"
   height="205.08"
   width="521">
  <metadata
     id="metadata16">
    <rdf:RDF>
      <cc:Work
         rdf:about="">
        <dc:format>image/svg+xml</dc:format>
        <dc:type
           rdf:resource="http://purl.org/dc/dcmitype/StillImage" />
        <dc:title></dc:title>
      </cc:Work>
    </rdf:RDF>
  </metadata>
	<style>
		#g8 {
    	animation-name: floating;
    	animation-duration: 3s;
    	animation-iteration-count: infinite;
   	 	animation-timing-function: ease-in-out;
		}

		@keyframes floating {
    	0% { transform: translate(0,  0px); }
    	50% { transform: translate(0, 5px); }
    	100% { transform: translate(0, 0px); }
		}
	</style>
	<linearGradient id="myGradient" gradientTransform="rotate(90)">
      <stop offset="5%"  stop-color="#9ccfd8" />
      <stop offset="95%" stop-color="#31748f" />
    </linearGradient>
  <defs
     id="defs14" />
  <g
     id="g8"
     fill="url('#myGradient')"
     word-spacing="0"
     letter-spacing="0"
     font-family="OTADESIGN Rounded"
     font-weight="400">
    	<g>
		<g transform="matrix(.26953 0 0 .26953 -55.341 -52.023)">

		</g>
		<g transform="matrix(3.6954 0 0 3.6954 208.34 -284.25)" clip-rule="evenodd" fill-rule="evenodd"
			stroke-linejoin="round" stroke-miterlimit="2">
			<path
				d="m11.582 84.119c-2.9058 0-5.3921 1.02-7.46 3.0598-2.0402 2.0676-3.0598 4.5542-3.0598 7.46 3.7964 0.03742 4.5686 0.01036 6.5746 8.19e-4 0.0018-4.15e-4 0.0033-4.15e-4 0.0052-8.19e-4 0.02839-2.1351 1.6603-3.7068 3.94-3.94 1.0619 0 1.9701 0.39127 2.7243 1.174 0.64225 0.6421 1.425 0.96317 2.348 0.96317 0.92083 0 1.7034-0.32106 2.3464-0.96317 0.64225-0.64276 0.96396-1.4254 0.96396-2.348 0-0.92126-0.32172-1.7032-0.96396-2.346-2.0679-2.0399-4.5406-3.0598-7.4187-3.0598zm-3.9452 10.521c-2.5881-4.2016-2.6041 0.06416-6.5746-8.19e-4 0 2.9058 1.0204 5.2887 3.0606 7.3564 2.0679 2.0399 4.5538 3.0598 7.4596 3.0598 2.8781 0 5.3512-1.02 7.4191-3.0598 0.64225-0.64284 0.96357-1.4247 0.96357-2.346 0-0.92258-0.32132-1.7052-0.96357-2.348-0.64298-0.6421-1.4256-0.96317-2.3464-0.96317-0.92301 0-1.7057 0.32106-2.348 0.96317-0.75426 0.7827-1.6628 1.1736-2.7247 1.1736-2.2797-0.23324-3.9124-1.7001-3.9408-3.8352-0.0018 1.1e-5 -0.0029-1e-5 -0.0048 0zm-49.468-17.45c-3.8683 0-7.1782 1.3578-9.9311 4.0734-2.716 2.7525-4.0734 6.0628-4.0734 9.9311 5.0539 0.04979 6.082 0.01348 8.7525 0.0011 0.0024-4.51e-4 0.0044-6.05e-4 0.0069-0.0011 0.03779-2.8423 2.2103-4.9346 5.2451-5.2451 1.4137 0 2.6227 0.52089 3.6268 1.5629 0.855 0.8548 1.897 1.2822 3.1257 1.2822 1.2258 0 2.2676-0.42741 3.1236-1.2822 0.85499-0.85567 1.2833-1.8976 1.2833-3.1257 0-1.2264-0.42828-2.2673-1.2833-3.1231-2.7528-2.7156-6.0446-4.0734-9.8761-4.0734zm-5.252 14.006c-3.4453-5.5934-3.4667 0.08539-8.7525-0.0011 0 3.8683 1.3584 7.0406 4.0744 9.7931 2.7528 2.7156 6.0623 4.0734 9.9305 4.0734 3.8315 0 7.1238-1.3578 9.8766-4.0734 0.85499-0.85577 1.2827-1.8967 1.2827-3.1231 0-1.2282-0.42775-2.2701-1.2827-3.1257-0.85596-0.8548-1.8978-1.2822-3.1236-1.2822-1.2287 0-2.2707 0.42741-3.1257 1.2822-1.0041 1.042-2.2136 1.5623-3.6273 1.5623-3.0348-0.31051-5.2084-2.2633-5.2462-5.1056-0.0024 1.1e-5 -0.0039-1.2e-5 -0.0063 0zm42.663-14.006c-1.1773 0-2.1864 0.42062-3.0269 1.2611-0.84045 0.84111-1.2714 1.8501-1.2605 3.0274l0.17494 19.047c0.010814 1.1772 0.42009 2.1864 1.2605 3.0269 0.84111 0.81273 1.8503 1.2188 3.0269 1.2188 1.178 0 2.1735-0.40606 2.9862-1.2188 0.84045-0.84045 1.2708-1.8497 1.26-3.0269l-0.17494-19.047c-0.010822-1.178-0.41956-2.187-1.26-3.0274-0.81332-0.84045-1.8089-1.2611-2.9862-1.2611zm29.767 0c-1.1765 0-2.1851 0.42062-3.0253 1.2611-0.81252 0.81266-1.2278 1.807-1.2198 2.9836l0.13108 19.314c8e-3 1.1772 0.4068 2.1864 1.2193 3.0269 0.84023 0.81266 1.8488 1.2193 3.0253 1.2193 1.1779 0 2.1859-0.40666 3.0269-1.2193 0.84023-0.84045 1.2611-1.8491 1.2611-3.0258 0-0.84046 0.1119-1.26 0.33509-1.26 0.11305 0 0.22508 0.04136 0.33667 0.12473l4.2029 4.0771c0.84023 0.81267 1.8348 1.2188 2.9836 1.2188 1.2042 0 2.2131-0.42062 3.0264-1.2611 0.81252-0.86897 1.2188-1.8637 1.2188-2.9841 0-1.2051-0.43415-2.2277-1.3028-3.0681-1.9058-1.8775-2.8997-2.8439-2.9836-2.8995-0.36468-0.36468-0.35117-0.67278 0.04123-0.92493l0.08456-0.04175v-0.04175l2.6479-1.6813c1.2603-0.84045 1.8911-2.0312 1.8911-3.5718 0-0.84045-0.22446-1.6253-0.67229-2.3546-0.84023-1.2606-2.0312-1.8911-3.5723-1.8911-0.84023 0-1.6251 0.22424-2.353 0.67229-3.2501 2.1581-4.932 3.265-5.0443 3.3213-0.19547 0.1396-0.37822 0.167-0.54597 0.08298-0.19693-0.08402-0.28963-0.2661-0.29545-0.54597l-0.13055-6.2858c-0.02446-1.1764-0.41978-2.1709-1.26-2.9836-0.84023-0.84045-1.8492-1.2611-3.0264-1.2611zm-46.276 6.9095c-2.8795 0-5.3538 1.0204-7.4227 3.0612-0.64257 0.64316-0.96404 1.4255-0.96404 2.3472 0 0.92303 0.32146 1.7062 0.96404 2.3493 0.64331 0.64243 1.4265 0.96351 2.3477 0.96351 0.92347 0 1.7068-0.32108 2.3493-0.96351 0.75465-0.78308 1.6632-1.1744 2.7256-1.1744 1.0894 0 2.0261 0.37695 2.8091 1.1316 0.75536 0.78309 1.1332 1.7201 1.1332 2.8102 0 1.0617-0.39242 1.9703-1.1754 2.7256-0.39149 0.4193-0.86676 0.69884-1.4249 0.83878-0.14116 0.02773-0.25248 0.01369-0.33614-0.04175-0.05605-0.08456-0.02751-0.16827 0.08456-0.25211l0.83825-0.88053c0.64329-0.64315 0.9651-1.412 0.9651-2.306 0-0.92236-0.27937-1.6632-0.83825-2.2225-0.55888-0.55932-1.3422-0.83878-2.3493-0.83878-0.6986 0-1.397 0.34902-2.0956 1.0475l-4.8651 4.8223c-0.64328 0.6438-0.96457 1.4271-0.96457 2.3488 0 0.92302 0.32128 1.7053 0.96457 2.3477 1.9568 1.9293 4.3751 2.8942 7.2546 2.8942 2.9072 0 5.3945-1.0343 7.4634-3.103 2.0412-2.0409 3.0618-4.501 3.0618-7.3804 0-2.9072-1.0206-5.3952-3.0618-7.4639-2.0689-2.0409-4.5562-3.0612-7.4634-3.0612zm74.764 0.02061c-2.9138 0-5.4067 1.0365-7.4803 3.1099-2.0459 2.0456-3.0686 4.5113-3.0686 7.3973 0 2.9138 1.0228 5.4074 3.0686 7.4808 2.0736 2.0455 4.5665 3.0681 7.4803 3.0681 2.8861 0 5.366-1.0226 7.4396-3.0681 0.64403-0.64462 0.96668-1.4287 0.96668-2.3525 0-0.92513-0.32265-1.7101-0.96668-2.3546-0.64476-0.64388-1.4296-0.96562-2.353-0.96562-0.92557 0-1.71 0.32174-2.3541 0.96562-0.75635 0.78488-1.6676 1.177-2.7325 1.177-1.0919 0-2.0307-0.37787-2.8155-1.1342-0.75708-0.78487-1.1353-1.7239-1.1353-2.8165 0-1.0641 0.39276-1.9749 1.1776-2.732 0.3924-0.42026 0.86866-0.7001 1.4281-0.84036 0.1415-0.02779 0.25332-0.01436 0.3372 0.04122 0.05616 0.08475 0.02777 0.16914-0.08456 0.25317l-0.84036 0.88264c-0.64476 0.64462-0.96721 1.4152-0.96721 2.3113 0 0.92447 0.28021 1.6667 0.84036 2.2272 0.56015 0.56059 1.3452 0.84036 2.3546 0.84036 0.70019 0 1.4002-0.34954 2.1004-1.0497l4.8757-4.8334c0.64476-0.64527 0.96721-1.4303 0.96721-2.3541 0-0.92513-0.32245-1.7091-0.96721-2.353-1.9613-1.9337-4.3849-2.9006-7.271-2.9006zm14.135 0.36468c-1.1765 0-2.1851 0.42009-3.0253 1.2605-0.81252 0.812-1.2188 1.8068-1.2188 2.9841v5.8418c0 2.8297 1.0081 5.2528 3.0248 7.2699 2.0182 2.0171 4.4428 3.0258 7.272 3.0258 0.56088 0 1.0792-0.0419 1.5555-0.12526 0.28008-0.0563 0.4756-5e-5 0.5872 0.16807 0.08461 0.11181 0.05633 0.26591-0.08298 0.46247-0.36468 0.50429-1.1358 0.75632-2.3123 0.75632-0.44783 0-1.0216-0.11178-1.7225-0.33614-0.70019-0.22435-1.2466-0.33668-1.639-0.33668-1.6535 0-2.8163 0.75713-3.4888 2.2706-0.25163 0.50428-0.37843 1.0362-0.37843 1.5967 0 1.6531 0.74329 2.816 2.2283 3.4883 1.485 0.70012 3.1515 1.0502 5.0004 1.0502 3.1946 0 5.7299-0.93854 7.6066-2.816 3.8023-4.6583 2.8593-9.356 2.8593-15.214 7.29e-4 -2.3268 0.04625-4.7173 0.08298-7.1024 0.01812-1.1765-0.41958-2.1714-1.2605-2.9841-0.81252-0.84045-1.8064-1.2605-2.9836-1.2605s-2.1859 0.42009-3.0269 1.2605c-0.84023 0.812-1.2605 1.8068-1.2605 2.9841v5.8418c0 0.47577-0.16851 0.89593-0.50475 1.2605-0.33551 0.33624-0.75529 0.50422-1.26 0.50422-0.47628 0-0.89659-0.16798-1.2605-0.50422-0.33624-0.36461-0.50475-0.78478-0.50475-1.2605v-5.8418c0-1.1766-0.42031-2.1714-1.2605-2.9841-0.84096-0.84045-1.8504-1.2605-3.0269-1.2605z"
				clip-rule="evenodd" fill-rule="nonzero" stroke-miterlimit="2" stroke-width="0" />
		</g>
	</g>
  </g>
</svg>
