<?xml version="1.0" encoding="UTF-8" standalone="no"?>
<svg
   id="firefish"
   viewBox="0 0 32808296 4129039"
   version="1.1"
   xml:space="preserve"
   width="32808296"
   height="4129039"
   xmlns="http://www.w3.org/2000/svg"
   xmlns:svg="http://www.w3.org/2000/svg"><defs
     id="defs32"><rect
       x="143.4174"
       y="-3724.3191"
       width="3969.9216"
       height="2324.6531"
       id="rect825" /></defs><g
     id="fish"
     transform="translate(61972.042,-632631.6)"><g
       id="fish-2"
       transform="translate(-241.86907,3694.0865)"><g
         id="body"><path
           d="m 4604.72,1024.05 h -832 c -53.02,0 -96,42.98 -96,96 v 832 c 0,53.02 42.98,96 96,96 h 832 c 53.02,0 96,-42.98 96,-96 v -832 c 0,-53.02 -42.98,-96 -96,-96 z m -672,768 c -70.69,0 -128,-57.31 -128,-128 0,-70.69 57.31,-128 128,-128 70.69,0 128,57.31 128,128 0,70.69 -57.31,128 -128,128 z m 320,0 c -70.69,0 -128,-57.31 -128,-128 0,-70.69 57.31,-128 128,-128 70.69,0 128,57.31 128,128 0,70.69 -57.31,128 -128,128 z"
           fill="#ffffff"
           id="path2" /></g><g
         id="fin-l"><path
           d="m 4604.38,895.73 h -439.94 c -52.98,0 -95.94,-42.95 -95.94,-95.94 V 359.85 c 0,-85.47 103.34,-128.27 163.77,-67.84 l 439.94,439.94 c 60.44,60.44 17.63,163.77 -67.84,163.77 z"
           fill="#ffffff"
           id="path5" /></g><g
         id="fin-b"><path
           d="m 5371.38,1664.05 h -445.51 c -53.65,0 -97.15,-43.5 -97.15,-97.15 v -445.51 c 0,-86.55 104.64,-129.9 165.84,-68.7 l 445.51,445.51 c 61.2,61.2 17.86,165.84 -68.7,165.84 z"
           fill="#ffffff"
           id="path8" /></g><g
         id="fin-r"><path
           d="m 5371.38,895.94 h -445.51 c -53.65,0 -97.15,-43.5 -97.15,-97.15 V 353.28 c 0,-86.55 104.64,-129.9 165.84,-68.7 l 445.51,445.51 c 61.2,61.2 17.86,165.84 -68.7,165.84 z"
           fill="#ffffff"
           id="path11" /></g></g><g
       id="text"
       transform="translate(-24.814976,1985.8104)"><text
         xml:space="preserve"
         transform="matrix(0.99261786,0,0,0.97429181,-786.77,5958.5398)"
         id="text823"
         style="font-style:normal;font-variant:normal;font-weight:bold;font-stretch:normal;font-size:400px;font-family:Inter;-inkscape-font-specification:'Inter Bold';text-align:center;letter-spacing:-8.68px;writing-mode:lr-tb;white-space:pre;shape-inside:url(#rect825);fill:#ffffff"
         x="826.99872"
         y="0"><tspan
           x="2124.0389"
           y="-3354.1306"
           id="tspan1715">
</tspan><tspan
           x="290.2212"
           y="-2434.5847"
           id="tspan1719"><tspan
             style="font-size:853.333px"
             id="tspan1717">transfish</tspan></tspan></text></g></g></svg>
