<?xml version="1.0" encoding="utf-8"?>
<svg viewBox="0 0 5724 2304" width="5724" height="2304" xmlns="http://www.w3.org/2000/svg">
  <g transform="matrix(1, 0, 0, 1, -138.18096923828125, -1499.9105224609375)">
    <g id="fish-2" transform="matrix(1, 0, 0, 1, -6.345899, 1503.978027)">
      <g id="body">
        <path d="m4604.72,1024.05h-832c-53.02,0-96,42.98-96,96v832c0,53.02,42.98,96,96,96h832c53.02,0,96-42.98,96-96v-832c0-53.02-42.98-96-96-96Zm-672,768c-70.69,0-128-57.31-128-128s57.31-128,128-128,128,57.31,128,128-57.31,128-128,128Zm320,0c-70.69,0-128-57.31-128-128s57.31-128,128-128,128,57.31,128,128-57.31,128-128,128Z" fill="#fff"/>
      </g>
      <g id="fin-l">
        <path d="m4604.38,895.73h-439.94c-52.98,0-95.94-42.95-95.94-95.94v-439.94c0-85.47,103.34-128.27,163.77-67.84l439.94,439.94c60.44,60.44,17.63,163.77-67.84,163.77Z" fill="#fff"/>
      </g>
      <g id="fin-b">
        <path d="m5371.38,1664.05h-445.51c-53.65,0-97.15-43.5-97.15-97.15v-445.51c0-86.55,104.64-129.9,165.84-68.7l445.51,445.51c61.2,61.2,17.86,165.84-68.7,165.84Z" fill="#fff"/>
      </g>
      <g id="fin-r">
        <path d="m5371.38,895.94h-445.51c-53.65,0-97.15-43.5-97.15-97.15v-445.51c0-86.55,104.64-129.9,165.84-68.7l445.51,445.51c61.2,61.2,17.86,165.84-68.7,165.84Z" fill="#fff"/>
      </g>
    </g>
    <path d="M 723.883 2909.671 Q 710.334 2909.671 704.621 2901.871 Q 698.908 2894.071 698.908 2881.4 L 698.908 2847.269 L 688.214 2847.269 L 688.214 2832.474 L 700.006 2831.595 L 702.35 2807.938 L 718.61 2807.938 L 718.61 2831.595 L 737.653 2831.595 L 737.653 2847.269 L 718.61 2847.269 L 718.61 2881.18 Q 718.61 2887.918 721.32 2891.031 Q 724.03 2894.144 729.084 2894.144 Q 733.185 2894.144 736.701 2892.752 L 740.143 2906.595 Q 737.14 2907.767 733.002 2908.719 Q 728.864 2909.671 723.883 2909.671 Z" transform="matrix(5.316716, 0, 0, 5.024237, -3148.672852, -11312.989258)" style="fill: rgb(255, 255, 255);"/>
    <path d="M 748.879 2907.84 L 748.879 2831.595 L 764.992 2831.595 L 766.53 2845.072 L 766.97 2845.072 Q 771.071 2837.601 776.821 2833.683 Q 782.57 2829.764 788.65 2829.764 Q 791.653 2829.764 793.703 2830.167 Q 795.754 2830.57 797.512 2831.302 L 793.557 2848.075 Q 791.653 2847.562 790.078 2847.342 Q 788.503 2847.123 786.086 2847.123 Q 781.618 2847.123 776.748 2850.492 Q 771.877 2853.861 768.654 2862.21 L 768.654 2907.84 Z" transform="matrix(5.316716, 0, 0, 5.024237, -3148.672852, -11312.989258)" style="fill: rgb(255, 255, 255);"/>
    <path d="M 822.508 2909.671 Q 812.327 2909.671 806.065 2903.336 Q 799.803 2897 799.803 2887.113 Q 799.803 2874.955 810.313 2868.216 Q 820.823 2861.478 843.968 2858.988 Q 843.748 2853.348 840.819 2849.43 Q 837.889 2845.511 830.711 2845.511 Q 825.438 2845.511 820.237 2847.489 Q 815.037 2849.466 809.764 2852.469 L 802.733 2839.798 Q 809.324 2835.55 817.381 2832.657 Q 825.438 2829.764 834.52 2829.764 Q 848.875 2829.764 856.273 2838.26 Q 863.67 2846.756 863.67 2863.382 L 863.67 2907.84 L 847.484 2907.84 L 846.092 2899.71 L 845.579 2899.71 Q 840.526 2904.032 834.813 2906.852 Q 829.1 2909.671 822.508 2909.671 Z M 828.953 2894.291 Q 833.201 2894.291 836.68 2892.35 Q 840.159 2890.409 843.968 2886.82 L 843.968 2871.073 Q 829.686 2872.977 824.193 2876.676 Q 818.699 2880.375 818.699 2885.501 Q 818.699 2890.116 821.556 2892.203 Q 824.412 2894.291 828.953 2894.291 Z" transform="matrix(5.316716, 0, 0, 5.024237, -3148.672852, -11312.989258)" style="fill: rgb(255, 255, 255);"/>
    <path d="M 879.732 2907.84 L 879.732 2831.595 L 895.846 2831.595 L 897.384 2841.556 L 897.823 2841.556 Q 902.804 2836.795 908.846 2833.28 Q 914.889 2829.764 922.725 2829.764 Q 934.957 2829.764 940.523 2837.821 Q 946.09 2845.877 946.09 2860.233 L 946.09 2907.84 L 926.461 2907.84 L 926.461 2862.723 Q 926.461 2853.788 923.861 2850.199 Q 921.261 2846.61 915.474 2846.61 Q 910.86 2846.61 907.308 2848.88 Q 903.756 2851.151 899.508 2855.326 L 899.508 2907.84 Z" transform="matrix(5.316716, 0, 0, 5.024237, -3148.672852, -11312.989258)" style="fill: rgb(255, 255, 255);"/>
    <path d="M 984.417 2909.671 Q 976.58 2909.671 968.817 2906.778 Q 961.053 2903.885 955.413 2898.465 L 964.056 2887.333 Q 969.036 2891.434 974.273 2893.229 Q 979.51 2895.023 985.003 2895.023 Q 990.716 2895.023 993.463 2892.716 Q 996.209 2890.409 996.209 2886.82 Q 996.209 2882.499 991.558 2880.155 Q 986.907 2877.811 980.609 2875.467 Q 975.115 2873.49 970.355 2870.523 Q 965.594 2867.557 962.664 2863.272 Q 959.734 2858.988 959.734 2852.982 Q 959.734 2842.801 967.315 2836.283 Q 974.896 2829.764 987.933 2829.764 Q 995.916 2829.764 1002.508 2832.438 Q 1009.1 2835.111 1013.86 2839.139 L 1005.364 2850.272 Q 997.381 2844.486 988.519 2844.486 Q 983.172 2844.486 980.718 2846.683 Q 978.265 2848.88 978.265 2852.03 Q 978.265 2855.912 982 2857.999 Q 985.735 2860.086 992.84 2862.503 Q 998.773 2864.481 1003.716 2867.411 Q 1008.66 2870.34 1011.663 2874.771 Q 1014.666 2879.203 1014.666 2885.721 Q 1014.666 2895.755 1006.939 2902.713 Q 999.212 2909.671 984.417 2909.671 Z" transform="matrix(5.316716, 0, 0, 5.024237, -3148.672852, -11312.989258)" style="fill: rgb(255, 255, 255);"/>
    <path d="M 1029.043 2907.84 L 1029.043 2825.15 Q 1029.043 2817.24 1031.716 2810.904 Q 1034.389 2804.569 1040.212 2800.87 Q 1046.035 2797.171 1055.483 2797.171 Q 1059.804 2797.171 1063.613 2797.977 Q 1067.421 2798.783 1069.838 2799.881 L 1066.03 2813.871 Q 1064.052 2813.358 1062.038 2813.028 Q 1060.024 2812.699 1058.193 2812.699 Q 1048.891 2812.699 1048.891 2824.784 L 1048.891 2907.84 Z M 1018.862 2847.269 L 1018.862 2832.474 L 1030.141 2831.595 L 1063.173 2831.595 L 1063.173 2847.269 Z" transform="matrix(5.316716, 0, 0, 5.024237, -3148.672852, -11312.989258)" style="fill: rgb(255, 255, 255);"/>
    <path d="M 1071.837 2907.84 L 1071.837 2831.595 L 1091.613 2831.595 L 1091.613 2907.84 Z M 1081.798 2819.144 Q 1076.671 2819.144 1073.485 2816.141 Q 1070.299 2813.138 1070.299 2808.231 Q 1070.299 2803.47 1073.485 2800.504 Q 1076.671 2797.538 1081.798 2797.538 Q 1086.925 2797.538 1090.111 2800.504 Q 1093.297 2803.47 1093.297 2808.231 Q 1093.297 2813.138 1090.111 2816.141 Q 1086.925 2819.144 1081.798 2819.144 Z" transform="matrix(5.316716, 0, 0, 5.024237, -3148.672852, -11312.989258)" style="fill: rgb(255, 255, 255);"/>
    <path d="M 1130.598 2909.671 Q 1122.761 2909.671 1114.997 2906.778 Q 1107.233 2903.885 1101.594 2898.465 L 1110.236 2887.333 Q 1115.217 2891.434 1120.453 2893.229 Q 1125.69 2895.023 1131.183 2895.023 Q 1136.896 2895.023 1139.643 2892.716 Q 1142.39 2890.409 1142.39 2886.82 Q 1142.39 2882.499 1137.739 2880.155 Q 1133.088 2877.811 1126.789 2875.467 Q 1121.296 2873.49 1116.535 2870.523 Q 1111.774 2867.557 1108.845 2863.272 Q 1105.915 2858.988 1105.915 2852.982 Q 1105.915 2842.801 1113.495 2836.283 Q 1121.076 2829.764 1134.113 2829.764 Q 1142.097 2829.764 1148.688 2832.438 Q 1155.28 2835.111 1160.041 2839.139 L 1151.545 2850.272 Q 1143.561 2844.486 1134.699 2844.486 Q 1129.352 2844.486 1126.899 2846.683 Q 1124.445 2848.88 1124.445 2852.03 Q 1124.445 2855.912 1128.181 2857.999 Q 1131.916 2860.086 1139.02 2862.503 Q 1144.953 2864.481 1149.897 2867.411 Q 1154.841 2870.34 1157.844 2874.771 Q 1160.847 2879.203 1160.847 2885.721 Q 1160.847 2895.755 1153.12 2902.713 Q 1145.392 2909.671 1130.598 2909.671 Z" transform="matrix(5.316716, 0, 0, 5.024237, -3148.672852, -11312.989258)" style="fill: rgb(255, 255, 255);"/>
    <path d="M 1171.927 2907.84 L 1171.927 2799.002 L 1191.703 2799.002 L 1191.703 2826.542 L 1190.75 2840.897 Q 1195.365 2836.649 1201.224 2833.207 Q 1207.083 2829.764 1214.92 2829.764 Q 1227.152 2829.764 1232.718 2837.821 Q 1238.285 2845.877 1238.285 2860.233 L 1238.285 2907.84 L 1218.656 2907.84 L 1218.656 2862.723 Q 1218.656 2853.788 1216.056 2850.199 Q 1213.455 2846.61 1207.669 2846.61 Q 1203.055 2846.61 1199.503 2848.88 Q 1195.951 2851.151 1191.703 2855.326 L 1191.703 2907.84 Z" transform="matrix(5.316716, 0, 0, 5.024237, -3148.672852, -11312.989258)" style="fill: rgb(255, 255, 255);"/>
  </g>
</svg>