<?xml version="1.0" encoding="UTF-8"?>
<svg clip-rule="evenodd" fill-rule="evenodd" stroke-linejoin="round" stroke-miterlimit="2" version="1.1" viewBox="0 0 521 136" xml:space="preserve" xmlns="http://www.w3.org/2000/svg">
    
<g><g transform="matrix(.26953 0 0 .26953 -55.341 -52.023)">
        <g fill-rule="nonzero"><path d="m1325.8 196.72c-16.13 0-29.96 5.766-41.48 17.289-11.14 11.142-16.829 24.778-16.72 40.91l1.7916 264.8c0.1092 16.141 5.58 29.977 16.72 41.5 11.52 11.142 25.35 16.713 41.48 16.713 16.15 0 29.97-5.571 41.5-16.713 11.52-11.523 17.29-25.353 17.29-41.486 0-11.523 1.53-17.281 4.59-17.281 1.55 0 3.09 0.57 4.62 1.713l57.62 55.895c11.52 11.142 25.16 16.713 40.91 16.713 16.51 0 30.34-5.765 41.49-17.288 11.14-11.914 16.71-25.55 16.71-40.911 0-16.522-5.95-30.546-17.86-42.069-26.13-25.741-39.76-38.989-40.91-39.751-5-5-4.81-9.225 0.57-12.682l1.16-0.576v-0.568l36.3-23.054c17.28-11.523 25.93-27.849 25.93-48.971 0-11.523-3.08-22.282-9.22-32.281-11.52-17.284-27.85-25.932-48.98-25.932-11.52 0-22.28 3.077-32.26 9.22-44.56 29.588-67.62 44.767-69.16 45.538-2.68 1.914-5.18 2.289-7.48 1.137-2.7-1.152-3.9702-3.6478-4.05-7.485l-1.7916-86.179c-0.3353-16.129-5.76-29.768-17.28-40.91-11.52-11.523-25.35-17.289-41.49-17.289zm390.58 95.015c-39.95 0-74.13 14.211-102.56 42.638-28.05 28.046-42.07 61.851-42.07 101.42 0 39.95 14.02 74.137 42.07 102.56 28.43 28.045 62.61 42.069 102.56 42.069 39.57 0 73.57-14.024 102-42.069 8.83-8.838 13.25-19.586 13.25-32.252 0-12.684-4.42-23.443-13.25-32.28-8.84-8.828-19.6-13.243-32.26-13.243-12.69 0-23.45 4.415-32.28 13.243-10.37 10.761-22.86 16.136-37.46 16.136-14.97 0-27.84-5.183-38.6-15.553-10.38-10.761-15.57-23.635-15.57-38.615 0-14.589 5.39-27.075 16.15-37.455 5.38-5.762 11.91-9.6 19.58-11.523 1.94-0.381 3.47-0.194 4.62 0.568 0.77 1.162 0.38 2.317-1.16 3.469l-11.52 12.099c-8.84 8.838-13.26 19.406-13.26 31.691 0 12.675 3.84 22.853 11.52 30.538 7.68 7.686 18.44 11.523 32.28 11.523 9.6 0 19.2-4.795 28.8-14.394l66.85-66.267c8.84-8.847 13.26-19.608 13.26-32.274 0-12.684-4.42-23.438-13.26-32.266-26.89-26.512-60.12-39.766-99.69-39.766zm193.8 4.998c-16.13 0-29.96 5.765-41.48 17.288-11.14 11.133-16.71 24.769-16.71 40.91v80.094c0 38.797 13.82 72.022 41.47 99.677 27.67 27.655 60.91 41.486 99.7 41.486 7.69 0 14.8-0.577 21.33-1.72 3.84-0.772 6.52-2e-3 8.05 2.303 1.16 1.533 0.77 3.646-1.14 6.341-5 6.914-15.57 10.371-31.7 10.371-6.14 0-14.01-1.537-23.62-4.613-9.6-3.076-17.09-4.614-22.47-4.614-22.67 0-38.61 10.379-47.83 31.129-3.45 6.914-5.19 14.21-5.19 21.895 0 22.665 10.19 38.609 30.55 47.827 20.36 9.599 43.21 14.395 68.56 14.395 43.8 0 78.56-12.866 104.29-38.607 52.131-63.868 39.2-128.28 39.2-208.59 0.01-31.902 0.6365-64.674 1.14-97.374 0.2484-16.13-5.75-29.768-17.28-40.91-11.14-11.523-24.77-17.288-40.91-17.288s-29.97 5.765-41.5 17.288c-11.52 11.133-17.28 24.769-17.28 40.91v80.094c0 6.523-2.31 12.281-6.92 17.28-4.6 4.61-10.36 6.917-17.28 6.917-6.53 0-12.29-2.307-17.28-6.917-4.61-4.999-6.92-10.757-6.92-17.28v-80.094c0-16.132-5.76-29.768-17.28-40.91-11.53-11.523-25.37-17.288-41.5-17.288zm-992.5-100.01c-16.142 0-29.978 5.766-41.501 17.289-11.523 11.532-17.429 25.367-17.281 41.508l2.399 261.14c0.14827 16.14 5.758 29.977 17.281 41.5 11.532 11.143 25.369 16.713 41.501 16.713 16.151 0 29.797-5.57 40.939-16.713 11.523-11.523 17.429-25.36 17.281-41.5l-2.399-261.14c-0.14837-16.15-5.758-29.985-17.281-41.508-11.151-11.523-24.798-17.289-40.939-17.289z"/><path d="m849.83 520.46m-158.51 59.031c39.859 0 73.962-14.179 102.33-42.541 27.986-27.982 41.974-61.71 41.974-101.19 0-39.859-13.988-73.968-41.974-102.33-28.365-27.981-62.467-41.973-102.33-41.973-39.48 0-73.403 13.992-101.77 41.973-8.81 8.818-13.22 19.542-13.22 32.179 0 12.655 4.4096 23.39 13.22 32.206 8.8201 8.808 19.556 13.213 32.187 13.213 12.661 0 23.397-4.4049 32.207-13.213 10.347-10.736 22.808-16.099 37.375-16.099 14.936 0 27.777 5.1712 38.512 15.518 10.356 10.736 15.535 23.581 15.535 38.527 0 14.556-5.3777 27.014-16.113 37.37-5.3675 5.7489-11.883 9.5782-19.536 11.497-1.9353 0.3802-3.4621 0.1935-4.6092-0.5667-0.7685-1.1593-0.3794-2.3117 1.1573-3.4611l11.494-12.072c8.8198-8.8179 13.23-19.362 13.23-31.619 0-12.646-3.8312-22.801-11.494-30.468-7.6625-7.6685-18.398-11.497-32.207-11.497-9.5781 0-19.157 4.7841-28.735 14.361l-66.698 66.116c-8.8197 8.8269-13.23 19.563-13.23 32.201 0 12.655 4.41 23.385 13.23 32.193 26.829 26.452 59.984 39.676 99.463 39.676z" stroke-width="3.7709"/></g>
    </g><g transform="matrix(5.1113 0 0 5.1113 -6.6657 -430.85)" fill-rule="nonzero" stroke-width=".26458"><path d="m1.6959 94.514c0 2.7967 0.98147 5.19 2.9451 7.18 1.9902 1.9633 4.383 2.945 7.1797 2.945 2.7701 0 5.1503-0.98175 7.1405-2.945 0.61814-0.61871 0.92757-1.3711 0.92757-2.2578 0-0.88795-0.30942-1.6411-0.92757-2.2598-0.61885-0.61801-1.3721-0.92708-2.2584-0.92708-0.88836 0-1.6416 0.30907-2.2598 0.92708-0.72596 0.75333-1.6003 1.1296-2.6224 1.1296-2.1941-0.22449-3.7649-1.7371-3.7922-3.792-1.7908-0.33151-2.5074-0.06256-6.3327 0z"/><path d="m1.6954 94.614c0-2.7967 0.98147-5.19 2.9451-7.18 1.9902-1.9633 4.383-2.945 7.1797-2.945 2.7701 0 5.1503 0.98175 7.1405 2.945 0.61814 0.61871 0.92757 1.3711 0.92757 2.2578 0 0.88795-0.30942 1.6411-0.92757 2.2598-0.61885 0.61801-1.3721 0.92708-2.2584 0.92708-0.88836 0-1.6416-0.30907-2.2598-0.92708-0.72596-0.75333-1.6003-1.1296-2.6224-1.1296-2.1941 0.22449-3.7649 1.7371-3.7922 3.792-1.7908 0.33151-2.5074 0.06256-6.3327 0z" clip-rule="evenodd" stroke-linejoin="round" stroke-miterlimit="2"/></g><g transform="matrix(3.6954 0 0 3.6954 208.34 -284.25)" clip-rule="evenodd" fill-rule="nonzero" stroke-linejoin="round" stroke-miterlimit="2" stroke-width=".26458"><path d="m1.6959 94.514c0 2.7967 0.98147 5.19 2.9451 7.18 1.9902 1.9633 4.383 2.945 7.1797 2.945 2.7701 0 5.1503-0.98175 7.1405-2.945 0.61814-0.61871 0.92757-1.3711 0.92757-2.2578 0-0.88795-0.30942-1.6411-0.92757-2.2598-0.61885-0.61801-1.3721-0.92708-2.2584-0.92708-0.88836 0-1.6416 0.30907-2.2598 0.92708-0.72596 0.75333-1.6003 1.1296-2.6224 1.1296-2.1941-0.22449-3.7649-1.7371-3.7922-3.792-1.7908-0.33151-2.5074-0.06256-6.3327 0z"/><path d="m1.6954 94.614c0-2.7967 0.98147-5.19 2.9451-7.18 1.9902-1.9633 4.383-2.945 7.1797-2.945 2.7701 0 5.1503 0.98175 7.1405 2.945 0.61814 0.61871 0.92757 1.3711 0.92757 2.2578 0 0.88795-0.30942 1.6411-0.92757 2.2598-0.61885 0.61801-1.3721 0.92708-2.2584 0.92708-0.88836 0-1.6416-0.30907-2.2598-0.92708-0.72596-0.75333-1.6003-1.1296-2.6224-1.1296-2.1941 0.22449-3.7649 1.7371-3.7922 3.792-1.7908 0.33151-2.5074 0.06256-6.3327 0z" clip-rule="evenodd" stroke-linejoin="round" stroke-miterlimit="2"/></g></g></svg>
