<?xml version="1.0" encoding="UTF-8"?>
<svg clip-rule="evenodd" fill-rule="evenodd" stroke-linejoin="round" stroke-miterlimit="2" version="1.1" viewBox="0 0 521 136" xml:space="preserve" xmlns="http://www.w3.org/2000/svg">
    
<g fill="#fff"><g transform="matrix(.26953 0 0 .26953 -55.341 -52.023)">
        
    </g><g transform="matrix(3.6954 0 0 3.6954 208.34 -284.25)" clip-rule="evenodd" fill-rule="evenodd" stroke-linejoin="round" stroke-miterlimit="2"><path d="m1.6954 94.614c0-2.7967 0.98147-5.19 2.9451-7.18 1.9902-1.9633 4.383-2.945 7.1797-2.945 2.7701 0 5.1503 0.98175 7.1405 2.945 0.61814 0.61871 0.92757 1.3711 0.92757 2.2578 0 0.88795-0.30942 1.6411-0.92757 2.2598-0.61885 0.61801-1.3721 0.92708-2.2584 0.92708-0.88836 0-1.6416-0.30907-2.2598-0.92708-0.72596-0.75333-1.6003-1.1296-2.6224-1.1296-2.1941 0.22449-3.7649 1.7371-3.7922 3.792-1.7908 0.33151-2.5074 0.06256-6.3327 0zm5.213e-4 -0.09995c0 2.7967 0.98147 5.19 2.9451 7.18 1.9902 1.9633 4.383 2.945 7.1797 2.945 2.7701 0 5.1503-0.98175 7.1405-2.945 0.61814-0.61871 0.92757-1.3711 0.92757-2.2578 0-0.88795-0.30942-1.6411-0.92757-2.2598-0.61885-0.61801-1.3721-0.92708-2.2584-0.92708-0.88836 0-1.6416 0.30907-2.2598 0.92708-0.72596 0.75333-1.6003 1.1296-2.6224 1.1296-2.1941-0.22449-3.7649-1.7371-3.7922-3.792-1.7908-0.33151-2.5074-0.06256-6.3327 0zm-57.532-3.3194c0-3.8683 1.3575-7.1786 4.0736-9.9311 2.7528-2.7156 6.0624-4.0735 9.9307-4.0735 3.8315 0 7.1237 1.3579 9.8765 4.0735 0.85499 0.85577 1.283 1.8965 1.283 3.1229 0 1.2282-0.42798 2.2699-1.283 3.1256-0.85596 0.8548-1.8978 1.2823-3.1237 1.2823-1.2287 0-2.2706-0.4275-3.1256-1.2823-1.0041-1.042-2.2135-1.5624-3.6272-1.5624-3.0348 0.31051-5.2074 2.4027-5.2452 5.245-2.477 0.45853-3.4681 0.08653-8.7591 0zm7.21e-4 -0.13824c0 3.8683 1.3575 7.1786 4.0736 9.9311 2.7528 2.7156 6.0624 4.0735 9.9307 4.0735 3.8315 0 7.1237-1.3579 9.8765-4.0735 0.85499-0.85577 1.283-1.8965 1.283-3.1229 0-1.2282-0.42798-2.2699-1.283-3.1256-0.85596-0.8548-1.8978-1.2823-3.1237-1.2823-1.2288 0-2.2706 0.4275-3.1256 1.2823-1.0041 1.042-2.2135 1.5624-3.6272 1.5624-3.0348-0.31051-5.2074-2.4027-5.2452-5.245-2.477-0.45853-3.4681-0.08653-8.7591 0zm46.467 9.7459m-11.561 4.3056c2.9072 0 5.3945-1.0342 7.4634-3.1028 2.0412-2.0409 3.0615-4.501 3.0615-7.3804 0-2.9072-1.0203-5.395-3.0615-7.4637-2.0689-2.0409-4.5562-3.0614-7.4634-3.0614-2.8795 0-5.3538 1.0205-7.4227 3.0614-0.64258 0.64316-0.9642 1.4253-0.9642 2.347 0 0.92303 0.32162 1.706 0.9642 2.349 0.64331 0.64243 1.4263 0.96371 2.3476 0.96371 0.92347 0 1.7065-0.32128 2.349-0.96371 0.75465-0.78309 1.6636-1.1742 2.726-1.1742 1.0894 0 2.0259 0.37717 2.809 1.1318 0.75536 0.78309 1.133 1.7199 1.133 2.81 0 1.0617-0.39223 1.9703-1.1753 2.7256-0.39149 0.41931-0.8667 0.6986-1.4249 0.83854-0.14116 0.02773-0.25252 0.01411-0.33618-0.04133-0.05605-0.08456-0.02767-0.16861 0.08441-0.25244l0.83832-0.88046c0.64329-0.64315 0.96494-1.4122 0.96494-2.3062 0-0.92237-0.27944-1.663-0.83832-2.2223-0.55888-0.55932-1.3419-0.83854-2.3491-0.83854-0.6986 0-1.3972 0.34894-2.0958 1.0475l-4.8647 4.8223c-0.64328 0.64381-0.96494 1.4269-0.96494 2.3486 0 0.92302 0.32165 1.7056 0.96494 2.348 1.9568 1.9293 4.375 2.8938 7.2546 2.8938zm46.276-27.918c-1.1765 0-2.1852 0.42055-3.0254 1.261-0.81252 0.81266-1.2275 1.8073-1.2195 2.9838l0.13067 19.314c8e-3 1.1772 0.40699 2.1864 1.2195 3.0269 0.84023 0.81266 1.849 1.219 3.0254 1.219 1.1779 0 2.1859-0.40633 3.0269-1.219 0.84023-0.84045 1.2611-1.8492 1.2611-3.0259 0-0.84046 0.11159-1.2604 0.33478-1.2604 0.11305 0 0.22538 0.04157 0.33697 0.12494l4.2026 4.0768c0.84023 0.81267 1.8351 1.219 2.9838 1.219 1.2042 0 2.2129-0.42048 3.0262-1.2609 0.81252-0.86897 1.2188-1.8635 1.2188-2.9839 0-1.2051-0.43397-2.2279-1.3027-3.0684-1.9058-1.8775-2.9-2.8437-2.9838-2.8993-0.36468-0.36468-0.35083-0.67284 0.04157-0.92499l0.08461-0.04201v-0.04143l2.6476-1.6815c1.2604-0.84045 1.8913-2.0312 1.8913-3.5718 0-0.84045-0.22465-1.6252-0.67248-2.3545-0.84023-1.2606-2.0313-1.8914-3.5724-1.8914-0.84023 0-1.625 0.22443-2.3529 0.67248-3.2501 2.1581-4.932 3.2652-5.0443 3.3214-0.19547 0.1396-0.37781 0.16695-0.54557 0.08293-0.19693-0.08402-0.28958-0.26606-0.2954-0.54593l-0.13067-6.2856c-0.02446-1.1764-0.42012-2.1712-1.2604-2.9838-0.84023-0.84045-1.849-1.261-3.0262-1.261zm28.488 6.9301c-2.9138 0-5.4068 1.0365-7.4804 3.1099-2.0459 2.0456-3.0685 4.5112-3.0685 7.3972 0 2.9138 1.0226 5.4073 3.0685 7.4807 2.0736 2.0455 4.5666 3.0684 7.4804 3.0684 2.8861 0 5.366-1.0229 7.4396-3.0684 0.64403-0.64462 0.96642-1.4286 0.96642-2.3524 0-0.92513-0.32238-1.7099-0.96642-2.3544-0.64476-0.64389-1.4296-0.9659-2.3529-0.9659-0.92557 0-1.7104 0.32202-2.3544 0.9659-0.75636 0.78488-1.6673 1.1769-2.7322 1.1769-1.0919 0-2.0306-0.37803-2.8154-1.1344-0.75709-0.78488-1.1356-1.7239-1.1356-2.8165 0-1.0641 0.39313-1.9748 1.1779-2.7319 0.3924-0.42026 0.86868-0.70019 1.4281-0.84045 0.1415-0.02779 0.25309-0.01415 0.33697 0.04143 0.05616 0.08475 0.02772 0.169-0.08461 0.25302l-0.84023 0.88246c-0.64476 0.64462-0.96714 1.4154-0.96714 2.3114 0 0.92448 0.28008 1.6668 0.84023 2.2273 0.56016 0.56059 1.345 0.84045 2.3544 0.84045 0.70019 0 1.4004-0.34973 2.1006-1.0499l4.8758-4.8333c0.64476-0.64527 0.96714-1.4301 0.96714-2.354 0-0.92513-0.32238-1.7095-0.96714-2.3534-1.9613-1.9337-4.385-2.9004-7.2711-2.9004zm14.135 0.36454c-1.1765 0-2.1852 0.42048-3.0254 1.2609-0.81252 0.81201-1.2188 1.8066-1.2188 2.9838v5.8418c0 2.8297 1.008 5.2531 3.0247 7.2701 2.0182 2.0171 4.4426 3.0259 7.2718 3.0259 0.56088 0 1.0795-0.0421 1.5557-0.12545 0.28008-0.0563 0.47555-1.5e-4 0.58714 0.16797 0.08461 0.11181 0.05616 0.26593-0.08315 0.46249-0.36468 0.50429-1.1356 0.75643-2.3121 0.75643-0.44783 0-1.0218-0.1121-1.7228-0.33646-0.70019-0.22435-1.2465-0.33653-1.6389-0.33653-1.6535 0-2.8161 0.75702-3.4886 2.2705-0.25163 0.50428-0.37854 1.0364-0.37854 1.597 0 1.6531 0.74323 2.816 2.2282 3.4884 1.485 0.70012 3.1516 1.0499 5.0006 1.0499 3.1946 0 5.7299-0.9384 7.6066-2.8159 3.8023-4.6583 2.8591-9.3562 2.8591-15.214 7.29e-4 -2.3268 0.04642-4.7171 0.08315-7.1022 0.01812-1.1765-0.41939-2.1712-1.2604-2.9838-0.81252-0.84045-1.8066-1.2609-2.9838-1.2609s-2.1859 0.42048-3.0269 1.2609c-0.84023 0.81201-1.2604 1.8066-1.2604 2.9838v5.8418c0 0.47577-0.16848 0.89574-0.50472 1.2604-0.33551 0.33624-0.75563 0.5045-1.2604 0.5045-0.47628 0-0.8964-0.16826-1.2604-0.5045-0.33624-0.36461-0.50472-0.78458-0.50472-1.2604v-5.8418c0-1.1766-0.42012-2.1712-1.2604-2.9838-0.84096-0.84045-1.8504-1.2609-3.0269-1.2609zm-72.39-7.2946c-1.1773 0-2.1865 0.42055-3.027 1.261-0.84045 0.84111-1.2712 1.8502-1.2604 3.0275l0.17498 19.047c0.010814 1.1772 0.41997 2.1864 1.2604 3.0269 0.84111 0.81273 1.8503 1.219 3.027 1.219 1.178 0 2.1733-0.40626 2.986-1.219 0.84045-0.84045 1.2712-1.8497 1.2604-3.0269l-0.17498-19.047c-0.010822-1.178-0.41997-2.187-1.2604-3.0275-0.81332-0.84045-1.8087-1.261-2.986-1.261z" clip-rule="evenodd" fill="#fff" fill-rule="nonzero" stroke-linejoin="round" stroke-miterlimit="2" stroke-width=".26458"/></g></g></svg>
