<svg xmlns="http://www.w3.org/2000/svg" xml:space="preserve" fill-rule="evenodd" stroke-linejoin="round" stroke-miterlimit="2" clip-rule="evenodd" viewBox="0 0 521 136"><path fill="#fff" fill-rule="nonzero" d="M251.14 26.603c-10.738 0-19.926 3.77-27.568 11.308-7.539 7.64-11.307 16.83-11.307 27.567 14.03.139 16.883.039 24.296.003l.02-.003c.104-7.89 6.135-13.698 14.56-14.56 3.923 0 7.28 1.446 10.067 4.339 2.373 2.373 5.265 3.559 8.676 3.559 3.403 0 6.295-1.186 8.671-3.56 2.374-2.375 3.562-5.267 3.562-8.676 0-3.404-1.188-6.294-3.562-8.67-7.642-7.538-16.78-11.307-27.415-11.307zm-14.579 38.88c-9.564-15.527-9.623.237-24.296-.003 0 10.738 3.771 19.543 11.31 27.184 7.642 7.539 16.829 11.308 27.567 11.308 10.635 0 19.774-3.77 27.416-11.308 2.374-2.375 3.56-5.264 3.56-8.669 0-3.41-1.186-6.301-3.56-8.677-2.376-2.373-5.268-3.559-8.67-3.559-3.412 0-6.304 1.186-8.678 3.56-2.787 2.892-6.144 4.336-10.068 4.336-8.425-.862-14.458-6.282-14.563-14.172h-.018zM53.757.998c-14.295 0-26.526 5.018-36.7 15.053C7.022 26.222 2.006 38.455 2.006 52.75c18.676.183 22.475.049 32.344.003l.025-.004c.14-10.503 8.168-18.235 19.383-19.383 5.224 0 9.692 1.925 13.402 5.776 3.16 3.159 7.01 4.738 11.551 4.738 4.53 0 8.38-1.58 11.543-4.738 3.16-3.162 4.742-7.012 4.742-11.55 0-4.533-1.582-8.38-4.742-11.542C80.08 6.016 67.916.998 53.757.998zM34.349 52.756c-12.732-20.67-12.811.315-32.344-.004 0 14.295 5.02 26.017 15.056 36.19 10.173 10.034 22.403 15.052 36.697 15.052 14.16 0 26.326-5.018 36.498-15.053 3.16-3.162 4.74-7.009 4.74-11.541 0-4.539-1.58-8.389-4.74-11.55-3.163-3.16-7.013-4.739-11.543-4.739-4.54 0-8.39 1.58-11.55 4.738-3.71 3.85-8.18 5.774-13.405 5.774-11.214-1.148-19.247-8.364-19.386-18.868h-.024zM192.006.998c-4.351 0-8.08 1.554-11.186 4.66-3.106 3.108-4.698 6.837-4.658 11.188l.646 70.386c.04 4.35 1.553 8.08 4.658 11.186 3.109 3.003 6.838 4.503 11.186 4.503 4.353 0 8.032-1.5 11.035-4.503 3.106-3.106 4.696-6.836 4.656-11.186l-.646-70.386c-.04-4.354-1.55-8.082-4.656-11.188-3.006-3.106-6.685-4.66-11.035-4.66zm110 0c-4.347 0-8.074 1.554-11.18 4.66-3.002 3.003-4.536 6.678-4.507 11.026l.485 71.373c.03 4.35 1.503 8.08 4.505 11.185 3.105 3.003 6.832 4.506 11.18 4.506 4.353 0 8.078-1.503 11.186-4.506 3.105-3.105 4.66-6.833 4.66-11.181 0-3.106.414-4.656 1.238-4.656.418 0 .832.152 1.244.46l15.532 15.067c3.105 3.003 6.78 4.504 11.025 4.504 4.45 0 8.179-1.554 11.184-4.66 3.003-3.211 4.504-6.887 4.504-11.028 0-4.453-1.604-8.232-4.814-11.338-7.043-6.938-10.716-10.509-11.026-10.714-1.347-1.348-1.298-2.487.153-3.418l.312-.155v-.154l9.785-6.213c4.657-3.106 6.988-7.506 6.988-13.2 0-3.105-.83-6.005-2.484-8.7-3.105-4.659-7.506-6.989-13.201-6.989-3.105 0-6.005.829-8.695 2.485-12.01 7.975-18.226 12.065-18.641 12.273-.722.516-1.398.617-2.018.307-.727-.31-1.07-.984-1.091-2.018l-.483-23.228c-.09-4.348-1.551-8.023-4.656-11.026C310.086 2.554 306.357 1 302.007 1zM130.999 26.53c-10.64 0-19.784 3.771-27.43 11.313-2.374 2.376-3.562 5.267-3.562 8.673 0 3.411 1.188 6.306 3.562 8.682 2.378 2.374 5.272 3.56 8.676 3.56 3.413 0 6.307-1.186 8.682-3.56 2.788-2.894 6.146-4.34 10.072-4.34 4.026 0 7.487 1.393 10.38 4.182 2.792 2.894 4.188 6.356 4.188 10.385 0 3.923-1.45 7.28-4.343 10.072a10.578 10.578 0 0 1-5.266 3.1c-.522.102-.933.05-1.242-.155-.207-.312-.102-.622.312-.931l3.098-3.254c2.377-2.377 3.567-5.218 3.567-8.522 0-3.408-1.033-6.146-3.098-8.213-2.065-2.067-4.96-3.1-8.682-3.1-2.581 0-5.162 1.29-7.744 3.871l-17.978 17.82c-2.378 2.38-3.565 5.274-3.565 8.68 0 3.411 1.187 6.302 3.565 8.676 7.23 7.13 16.167 10.695 26.808 10.695 10.744 0 19.935-3.822 27.58-11.466 7.544-7.542 11.315-16.633 11.315-27.274 0-10.743-3.771-19.937-11.314-27.582-7.646-7.542-16.837-11.312-27.58-11.312zm276.283.076c-10.768 0-19.98 3.83-27.643 11.493-7.56 7.56-11.34 16.67-11.34 27.336 0 10.767 3.78 19.982 11.34 27.644 7.663 7.56 16.875 11.338 27.643 11.338 10.665 0 19.83-3.779 27.492-11.338 2.38-2.382 3.573-5.28 3.573-8.693 0-3.419-1.193-6.32-3.573-8.701-2.382-2.38-5.283-3.569-8.695-3.569-3.42 0-6.319 1.19-8.7 3.569-2.794 2.9-6.162 4.35-10.097 4.35-4.035 0-7.504-1.397-10.404-4.192-2.798-2.9-4.196-6.37-4.196-10.408 0-3.933 1.452-7.298 4.352-10.096a10.6 10.6 0 0 1 5.277-3.106c.523-.102.937-.053 1.247.153.207.313.102.625-.313.935l-3.105 3.262c-2.383 2.382-3.575 5.23-3.575 8.541 0 3.417 1.036 6.16 3.106 8.23 2.07 2.072 4.97 3.106 8.701 3.106 2.587 0 5.174-1.292 7.762-3.879l18.017-17.861c2.383-2.385 3.575-5.286 3.575-8.7 0-3.418-1.192-6.315-3.575-8.695-7.247-7.146-16.203-10.719-26.869-10.719zm52.235 1.348c-4.348 0-8.075 1.552-11.18 4.658-3.003 3-4.504 6.677-4.504 11.028v21.587c0 10.457 3.725 19.412 11.178 26.866 7.458 7.454 16.418 11.181 26.873 11.181 2.072 0 3.988-.155 5.748-.463 1.035-.208 1.757 0 2.17.621.313.413.208.983-.307 1.71-1.347 1.863-4.197 2.794-8.545 2.794-1.655 0-3.775-.413-6.365-1.242-2.587-.829-4.607-1.244-6.057-1.244-6.11 0-10.407 2.798-12.892 8.39a13.044 13.044 0 0 0-1.399 5.901c0 6.109 2.747 10.406 8.235 12.89 5.487 2.588 11.646 3.882 18.478 3.882 11.806 0 21.175-3.469 28.11-10.407 14.05-17.214 10.566-34.574 10.566-56.221.003-8.599.17-17.433.307-26.247.067-4.347-1.55-8.024-4.658-11.027-3.003-3.106-6.676-4.658-11.026-4.658s-8.078 1.552-11.186 4.658c-3.105 3-4.658 6.677-4.658 11.027v21.588c0 1.758-.622 3.311-1.865 4.658-1.24 1.243-2.791 1.864-4.656 1.864-1.76 0-3.313-.621-4.658-1.864-1.243-1.347-1.865-2.9-1.865-4.658V43.64c0-4.348-1.554-8.024-4.659-11.027-3.107-3.106-6.838-4.658-11.185-4.658z"/></svg>